<mxfile host="app.diagrams.net" agent="Mozilla/5.0 (X11; Linux x86_64) AppleWebKit/537.36 (KHTML, like Gecko) Chrome/133.0.0.0 Safari/537.36" version="26.2.13">
  <diagram name="Page-1" id="zWusPRGAs0goGaPlGl6R">
    <mxGraphModel dx="788" dy="438" grid="1" gridSize="10" guides="1" tooltips="1" connect="1" arrows="1" fold="1" page="1" pageScale="1" pageWidth="850" pageHeight="1100" math="0" shadow="0">
      <root>
        <mxCell id="0" />
        <mxCell id="1" parent="0" />
        <mxCell id="u2Syt2m6s8DIf81XCFqA-10" value="" style="ellipse;whiteSpace=wrap;html=1;fillColor=none;" vertex="1" parent="1">
          <mxGeometry x="200" y="120" width="290" height="290" as="geometry" />
        </mxCell>
        <mxCell id="u2Syt2m6s8DIf81XCFqA-11" value="" style="ellipse;whiteSpace=wrap;html=1;fillColor=none;" vertex="1" parent="1">
          <mxGeometry x="360" y="120" width="290" height="290" as="geometry" />
        </mxCell>
        <mxCell id="u2Syt2m6s8DIf81XCFqA-9" style="edgeStyle=orthogonalEdgeStyle;rounded=0;orthogonalLoop=1;jettySize=auto;html=1;entryX=0;entryY=0.5;entryDx=0;entryDy=0;" edge="1" parent="1" source="u2Syt2m6s8DIf81XCFqA-4" target="u2Syt2m6s8DIf81XCFqA-7">
          <mxGeometry relative="1" as="geometry" />
        </mxCell>
        <mxCell id="u2Syt2m6s8DIf81XCFqA-4" value="vuln (VM)&lt;br&gt;192.168.122.172/24" style="rounded=0;whiteSpace=wrap;html=1;" vertex="1" parent="1">
          <mxGeometry x="370" y="241.25" width="110" height="50" as="geometry" />
        </mxCell>
        <mxCell id="u2Syt2m6s8DIf81XCFqA-7" value="kingdom (VM)&lt;br&gt;192.168.122.172/24" style="rounded=0;whiteSpace=wrap;html=1;" vertex="1" parent="1">
          <mxGeometry x="510" y="241.25" width="130" height="50" as="geometry" />
        </mxCell>
        <mxCell id="u2Syt2m6s8DIf81XCFqA-8" style="edgeStyle=orthogonalEdgeStyle;rounded=0;orthogonalLoop=1;jettySize=auto;html=1;entryX=0;entryY=0.5;entryDx=0;entryDy=0;" edge="1" parent="1" source="u2Syt2m6s8DIf81XCFqA-3" target="u2Syt2m6s8DIf81XCFqA-4">
          <mxGeometry relative="1" as="geometry" />
        </mxCell>
        <mxCell id="u2Syt2m6s8DIf81XCFqA-3" value="Attacker (My host)&lt;div&gt;192.168.122.1/24&lt;/div&gt;" style="rounded=0;whiteSpace=wrap;html=1;" vertex="1" parent="1">
          <mxGeometry x="220" y="241.25" width="110" height="50" as="geometry" />
        </mxCell>
      </root>
    </mxGraphModel>
  </diagram>
</mxfile>
